<svg width="1107" height="240" xmlns="http://www.w3.org/2000/svg" xmlns:xlink="http://www.w3.org/1999/xlink" overflow="hidden"><defs><clipPath id="clip0"><rect x="0" y="0" width="1107" height="240"/></clipPath><clipPath id="clip1"><rect x="94" y="74" width="49" height="82"/></clipPath><clipPath id="clip2"><rect x="94" y="74" width="49" height="82"/></clipPath><clipPath id="clip3"><rect x="94" y="74" width="49" height="82"/></clipPath></defs><g clip-path="url(#clip0)"><rect x="0" y="0" width="1107" height="240.036"/><path d="M168.695 160.77 159 152.023" stroke="#FFFFFF" stroke-width="7.9988" stroke-miterlimit="8" fill="none" fill-rule="evenodd"/><path d="M0 12.857C-1.63686e-15 5.75627 5.75624-1.63687e-15 12.8569-3.27373e-15 19.9576-6.54746e-15 25.7139 5.75627 25.7139 12.857 25.7139 19.9577 19.9576 25.714 12.8569 25.714 5.75624 25.714-8.1843e-15 19.9577 0 12.857Z" stroke="#FFFFFF" stroke-width="7.9994" stroke-miterlimit="8" fill="none" fill-rule="evenodd" transform="matrix(0.707054 0.70716 0.707054 -0.70716 189.526 185.248)"/><path d="M0 0 22.0767 0.000104971" stroke="#FFFFFF" stroke-width="7.9988" stroke-miterlimit="8" fill="none" fill-rule="evenodd" transform="matrix(1 0 0 -1.00015 166 160.024)"/><path d="M185 158.024 198.278 176.302" stroke="#FFFFFF" stroke-width="7.9988" stroke-miterlimit="8" fill="none" fill-rule="evenodd"/><path d="M0 0 9.69502 8.74598" stroke="#FFFFFF" stroke-width="7.9988" stroke-miterlimit="8" fill="none" fill-rule="evenodd" transform="matrix(1 0 0 -1.00015 68.0001 163.771)"/><path d="M38.4623 179.292C43.4829 184.313 43.4829 192.454 38.4624 197.475 33.4418 202.497 25.3018 202.497 20.2813 197.475 15.2607 192.454 15.2607 184.313 20.2812 179.292 25.3018 174.27 33.4417 174.27 38.4623 179.292Z" stroke="#FFFFFF" stroke-width="7.9994" stroke-miterlimit="8" fill="none" fill-rule="evenodd"/><path d="M71.0766 163.025 49 163.024" stroke="#FFFFFF" stroke-width="7.9988" stroke-miterlimit="8" fill="none" fill-rule="evenodd"/><path d="M0 0 13.2778 18.2756" stroke="#FFFFFF" stroke-width="7.9988" stroke-miterlimit="8" fill="none" fill-rule="evenodd" transform="matrix(-1 0 0 1.00015 51.2777 161.024)"/><path d="M0 0 9.69502 8.74598" stroke="#FFFFFF" stroke-width="7.9988" stroke-miterlimit="8" fill="none" fill-rule="evenodd" transform="matrix(-1 0 0 1.00015 168.695 70.0105)"/><path d="M198.554 54.6433C193.533 49.622 193.533 41.4808 198.554 36.4594 203.574 31.4381 211.714 31.4381 216.735 36.4595 221.756 41.4808 221.756 49.622 216.735 54.6433 211.714 59.6647 203.575 59.6646 198.554 54.6433Z" stroke="#FFFFFF" stroke-width="7.9994" stroke-miterlimit="8" fill="none" fill-rule="evenodd"/><path d="M166 71.0107 188.077 71.0108" stroke="#FFFFFF" stroke-width="7.9988" stroke-miterlimit="8" fill="none" fill-rule="evenodd"/><path d="M0 0 13.2778 18.2756" stroke="#FFFFFF" stroke-width="7.9988" stroke-miterlimit="8" fill="none" fill-rule="evenodd" transform="matrix(1 0 0 -1.00015 185 73.2866)"/><g clip-path="url(#clip1)"><g clip-path="url(#clip2)"><g clip-path="url(#clip3)"><path d="M58.4349 64.3326C58.4349 68.128 55.3581 71.2046 51.5629 71.2046 47.7675 71.2046 44.6909 68.1278 44.6909 64.3326 44.6909 60.5372 47.7677 57.4606 51.5629 57.4606 55.3583 57.4606 58.4349 60.5374 58.4349 64.3326Z" stroke="#FFFFFF" stroke-width="0.185063" fill="#FFFFFF" transform="matrix(1 0 0 1.00259 70.5205 16.4595)"/><path d="M95.5835 90.7817C95.5835 90.7817 89.9674 119.943 88.7582 121.916 87.724 123.603 79.6543 136.844 79.6543 136.844 77.9314 139.669 79.5641 141.688 81.3892 142.742 82.943 143.639 86.283 143.417 87.3874 141.533 87.3874 141.533 96.3406 127.6 97.3175 124.595 97.9939 122.515 99.5653 113.885 99.5653 113.885 99.5653 113.885 108.265 122.858 109.218 124.463 110.419 126.487 112.655 140.595 112.655 140.595 113.19 143.105 115.584 143.923 118.077 143.503 120.045 143.172 122.103 141.84 121.647 139.404 121.647 139.404 119.658 123.048 118.077 120.364 116.19 117.161 106.044 106.216 106.044 106.216L108.953 93.2576C108.953 93.2576 110.82 97.0424 112.127 98.6788 113.612 100.54 122.969 105.951 122.969 105.951 123.827 106.527 125.77 106.21 126.539 104.761 127.156 103.599 127.127 101.715 125.746 100.794 125.746 100.794 118.035 95.9534 116.226 94.4475 114.213 92.7759 110.143 81.6246 110.143 81.6246 108.88 79.8872 107.153 77.9701 104.193 77.9224 101.209 77.8742 99.7153 79.5181 98.3747 80.4346 98.3747 80.4346 86.9445 88.7841 85.8134 90.4836 84.6755 92.1934 82.64 105.028 82.64 105.028 82.3209 106.491 82.8921 107.667 84.6233 108.069 86.7416 108.562 88.2599 107.243 88.4578 106.218 88.4578 106.218 89.7628 96.0806 90.7056 94.5826 91.8029 92.8387 95.5826 90.7839 95.5826 90.7839Z" stroke="#FFFFFF" stroke-width="0.185063" fill="#FFFFFF" transform="matrix(1 0 0 1.00259 16.0767 10.9854)"/></g></g></g><path d="M62 115.017C62 84.0847 87.0721 59.0089 118 59.0089 148.928 59.0089 174 84.0847 174 115.017 174 145.95 148.928 171.026 118 171.026 87.0721 171.026 62 145.95 62 115.017Z" stroke="#FFFFFF" stroke-width="7.9988" stroke-miterlimit="8" fill="none" fill-rule="evenodd"/><path d="M0 0 0.000104971 21.6564" stroke="#FFFFFF" stroke-width="7.9988" stroke-miterlimit="8" fill="none" fill-rule="evenodd" transform="matrix(-1.83697e-16 -1.00015 -1 1.83725e-16 195.656 114.017)"/><path d="M194 114.017C194 106.836 199.82 101.015 207 101.015 214.18 101.015 220 106.836 220 114.017 220 121.198 214.18 127.019 207 127.019 199.82 127.019 194 121.198 194 114.017Z" stroke="#FFFFFF" stroke-width="7.9988" stroke-miterlimit="8" fill="none" fill-rule="evenodd"/><path d="M0 0 0.000104971 21.6564" stroke="#FFFFFF" stroke-width="7.9988" stroke-miterlimit="8" fill="none" fill-rule="evenodd" transform="matrix(-1 1.22483e-16 1.22465e-16 1.00015 120 37.0056)"/><path d="M121 39.0059C113.82 39.0059 108 33.1847 108 26.0039 108 18.8232 113.82 13.002 121 13.002 128.18 13.002 134 18.8232 134 26.0039 134 33.1847 128.18 39.0059 121 39.0059Z" stroke="#FFFFFF" stroke-width="8" stroke-miterlimit="8" fill="none" fill-rule="evenodd"/><path d="M0 0 0.000104971 21.6564" stroke="#FFFFFF" stroke-width="7.9988" stroke-miterlimit="8" fill="none" fill-rule="evenodd" transform="matrix(1 0 0 -1.00015 120 193.686)"/><path d="M119.5 192.029C126.404 192.029 132 197.626 132 204.531 132 211.435 126.404 217.033 119.5 217.033 112.596 217.033 107 211.435 107 204.531 107 197.626 112.596 192.029 119.5 192.029Z" stroke="#FFFFFF" stroke-width="8" stroke-miterlimit="8" fill="none" fill-rule="evenodd"/><path d="M41 113.017 62.6564 113.017" stroke="#FFFFFF" stroke-width="8" stroke-miterlimit="8" fill="none" fill-rule="evenodd"/><path d="M0 13C-1.65508e-15 5.82029 5.82031-1.65507e-15 13-3.31014e-15 20.1798-6.62029e-15 26.0001 5.82029 26.0001 13 26.0001 20.1797 20.1798 26 13 26 5.82031 26-8.27539e-15 20.1797 0 13Z" stroke="#FFFFFF" stroke-width="7.9988" stroke-miterlimit="8" fill="none" fill-rule="evenodd" transform="matrix(-1 0 0 1.00015 43 101.015)"/><path d="M67 67.0101 76.695 75.7574" stroke="#FFFFFF" stroke-width="7.9988" stroke-miterlimit="8" fill="none" fill-rule="evenodd"/><path d="M0 12.8569C-1.63686e-15 5.75624 5.75624-1.63686e-15 12.8569-3.27372e-15 19.9576-6.54744e-15 25.7139 5.75624 25.7139 12.8569 25.7139 19.9576 19.9576 25.7139 12.8569 25.7139 5.75624 25.7139-8.1843e-15 19.9576 0 12.8569Z" stroke="#FFFFFF" stroke-width="7.9994" stroke-miterlimit="8" fill="none" fill-rule="evenodd" transform="matrix(-0.707054 -0.70716 -0.707054 0.70716 46.3797 42.6461)"/><path d="M0 0 22.0767 0.000104971" stroke="#FFFFFF" stroke-width="7.9988" stroke-miterlimit="8" fill="none" fill-rule="evenodd" transform="matrix(-1 0 0 1.00015 70.0767 68.0103)"/><path d="M50.2778 70.2862 37 52.0079" stroke="#FFFFFF" stroke-width="7.9988" stroke-miterlimit="8" fill="none" fill-rule="evenodd"/><text fill="#FFFFFF" font-family="OCR A,OCR A_MSFontService,sans-serif" font-weight="400" font-stretch="expanded" font-size="267" transform="matrix(1 0 0 1.00015 226.945 206)">H2X<tspan font-size="267" x="456.765" y="0">Lab </tspan></text></g></svg>