<svg width="1286" height="240" xmlns="http://www.w3.org/2000/svg" xmlns:xlink="http://www.w3.org/1999/xlink" overflow="hidden"><defs><clipPath id="clip0"><rect x="0" y="0" width="1286" height="240"/></clipPath><clipPath id="clip1"><rect x="104" y="73" width="48" height="81"/></clipPath><clipPath id="clip2"><rect x="104" y="73" width="48" height="81"/></clipPath><clipPath id="clip3"><rect x="104" y="73" width="48" height="81"/></clipPath></defs><g clip-path="url(#clip0)"><rect x="0" y="0" width="1286" height="240.062"/><path d="M177.694 159.786 168 151.039" stroke="#FFFFFF" stroke-width="7.99793" stroke-miterlimit="8" fill="none" fill-rule="evenodd"/><path d="M0 12.8563C-1.63677e-15 5.75595 5.75593-1.63678e-15 12.8562-3.27355e-15 19.9565-6.54711e-15 25.7125 5.75595 25.7125 12.8563 25.7125 19.9566 19.9565 25.7126 12.8562 25.7126 5.75593 25.7126-8.18385e-15 19.9566 0 12.8563Z" stroke="#FFFFFF" stroke-width="7.99896" stroke-miterlimit="8" fill="none" fill-rule="evenodd" transform="matrix(0.707015 0.707198 0.707015 -0.707198 198.071 184.048)"/><path d="M0 0 22.0743 0.00010496" stroke="#FFFFFF" stroke-width="7.99793" stroke-miterlimit="8" fill="none" fill-rule="evenodd" transform="matrix(1 0 0 -1.00026 175 158.041)"/><path d="M194 157.041 207.276 175.319" stroke="#FFFFFF" stroke-width="7.99793" stroke-miterlimit="8" fill="none" fill-rule="evenodd"/><path d="M0 0 9.69397 8.74503" stroke="#FFFFFF" stroke-width="7.99793" stroke-miterlimit="8" fill="none" fill-rule="evenodd" transform="matrix(1 0 0 -1.00026 77 162.787)"/><path d="M47.024 178.092C52.0441 183.113 52.0441 191.254 47.0241 196.275 42.004 201.297 33.865 201.297 28.8449 196.275 23.8249 191.254 23.8249 183.113 28.8449 178.092 33.8649 173.07 42.004 173.07 47.024 178.092Z" stroke="#FFFFFF" stroke-width="7.99896" stroke-miterlimit="8" fill="none" fill-rule="evenodd"/><path d="M79.0743 162.042 57 162.042" stroke="#FFFFFF" stroke-width="7.99793" stroke-miterlimit="8" fill="none" fill-rule="evenodd"/><path d="M0 0 13.2763 18.2736" stroke="#FFFFFF" stroke-width="7.99793" stroke-miterlimit="8" fill="none" fill-rule="evenodd" transform="matrix(-1 0 0 1.00026 60.2763 160.041)"/><path d="M0 0 9.69397 8.74503" stroke="#FFFFFF" stroke-width="7.99793" stroke-miterlimit="8" fill="none" fill-rule="evenodd" transform="matrix(-1 0 0 1.00026 176.694 69.0178)"/><path d="M207.098 53.4433C202.078 48.422 202.078 40.2808 207.098 35.2594 212.118 30.2381 220.257 30.2381 225.277 35.2595 230.297 40.2808 230.297 48.422 225.277 53.4433 220.257 58.4647 212.118 58.4646 207.098 53.4433Z" stroke="#FFFFFF" stroke-width="7.99896" stroke-miterlimit="8" fill="none" fill-rule="evenodd"/><path d="M175 70.0182 197.074 70.0183" stroke="#FFFFFF" stroke-width="7.99793" stroke-miterlimit="8" fill="none" fill-rule="evenodd"/><path d="M0 0 13.2763 18.2736" stroke="#FFFFFF" stroke-width="7.99793" stroke-miterlimit="8" fill="none" fill-rule="evenodd" transform="matrix(1 0 0 -1.00026 194 71.2921)"/><g clip-path="url(#clip1)"><g clip-path="url(#clip2)"><g clip-path="url(#clip3)"><path d="M57.8691 63.7097C57.8691 67.4684 54.8221 70.5152 51.0637 70.5152 47.305 70.5152 44.2582 67.4682 44.2582 63.7097 44.2582 59.9511 47.3052 56.9043 51.0637 56.9043 54.8223 56.9043 57.8691 59.9513 57.8691 63.7097Z" stroke="#FFFFFF" stroke-width="0.183271" fill="#FFFFFF" transform="matrix(1.00978 0 0 1 79.5206 16.1715)"/><path d="M94.6581 89.9027C94.6581 89.9027 89.0963 118.781 87.8988 120.736 86.8746 122.407 78.8831 135.519 78.8831 135.519 77.1769 138.316 78.7938 140.317 80.6012 141.36 82.14 142.248 85.4477 142.028 86.5414 140.163 86.5414 140.163 95.4079 126.365 96.3753 123.389 97.0451 121.329 98.6013 112.783 98.6013 112.783 98.6013 112.783 107.217 121.668 108.16 123.258 109.35 125.262 111.565 139.233 111.565 139.233 112.095 141.719 114.465 142.53 116.934 142.114 118.883 141.786 120.921 140.467 120.469 138.055 120.469 138.055 118.499 121.856 116.934 119.198 115.065 116.026 105.018 105.187 105.018 105.187L107.898 92.3547C107.898 92.3547 109.747 96.1029 111.041 97.7234 112.512 99.5664 121.778 104.925 121.778 104.925 122.628 105.496 124.553 105.181 125.314 103.747 125.925 102.596 125.896 100.73 124.528 99.8184 124.528 99.8184 116.892 95.0244 115.1 93.5331 113.108 91.8777 109.076 80.8344 109.076 80.8344 107.826 79.1137 106.116 77.2152 103.184 77.1679 100.229 77.1203 98.7498 78.7482 97.4222 79.6558 97.4222 79.6558 86.1027 87.9245 84.9826 89.6076 83.8557 91.3008 81.8399 104.011 81.8399 104.011 81.5238 105.46 82.0896 106.624 83.804 107.023 85.9017 107.511 87.4053 106.205 87.6013 105.19 87.6013 105.19 88.8937 95.1503 89.8274 93.6669 90.9141 91.9398 94.6572 89.9049 94.6572 89.9049Z" stroke="#FFFFFF" stroke-width="0.183271" fill="#FFFFFF" transform="matrix(1.00978 0 0 1 25.0769 10.7645)"/></g></g></g><path d="M70 114.03C70 83.0936 95.2959 58.015 126.5 58.015 157.704 58.015 183 83.0936 183 114.03 183 144.966 157.704 170.044 126.5 170.044 95.2959 170.044 70 144.966 70 114.03Z" stroke="#FFFFFF" stroke-width="7.99793" stroke-miterlimit="8" fill="none" fill-rule="evenodd"/><path d="M0 0 0.00010496 21.654" stroke="#FFFFFF" stroke-width="7.99793" stroke-miterlimit="8" fill="none" fill-rule="evenodd" transform="matrix(-1.83697e-16 -1.00026 -1 1.83745e-16 204.654 112.029)"/><path d="M202 113.029C202 105.848 207.82 100.026 215 100.026 222.18 100.026 228 105.848 228 113.029 228 120.211 222.18 126.033 215 126.033 207.82 126.033 202 120.211 202 113.029Z" stroke="#FFFFFF" stroke-width="7.99793" stroke-miterlimit="8" fill="none" fill-rule="evenodd"/><path d="M0 0 0.00010496 21.654" stroke="#FFFFFF" stroke-width="7.99793" stroke-miterlimit="8" fill="none" fill-rule="evenodd" transform="matrix(-1 1.22496e-16 1.22465e-16 1.00026 129 36.0093)"/><path d="M129.5 38.0098C122.597 38.0098 117 32.188 117 25.0065 117 17.8249 122.597 12.0031 129.5 12.0031 136.404 12.0031 142 17.8249 142 25.0065 142 32.188 136.404 38.0098 129.5 38.0098Z" stroke="#FFFFFF" stroke-width="8" stroke-miterlimit="8" fill="none" fill-rule="evenodd"/><path d="M0 0 0.00010496 21.654" stroke="#FFFFFF" stroke-width="7.99793" stroke-miterlimit="8" fill="none" fill-rule="evenodd" transform="matrix(1 0 0 -1.00026 129 191.704)"/><path d="M128 190.049C135.18 190.049 141 195.871 141 203.053 141 210.234 135.18 216.056 128 216.056 120.82 216.056 115 210.234 115 203.053 115 195.871 120.82 190.049 128 190.049Z" stroke="#FFFFFF" stroke-width="8" stroke-miterlimit="8" fill="none" fill-rule="evenodd"/><path d="M49 112.029 70.654 112.029" stroke="#FFFFFF" stroke-width="8" stroke-miterlimit="8" fill="none" fill-rule="evenodd"/><path d="M0 13C-1.59142e-15 5.82029 5.59645-1.65507e-15 12.5-3.31014e-15 19.4036-6.62029e-15 25 5.82029 25 13 25 20.1797 19.4036 26 12.5 26 5.59645 26-7.95709e-15 20.1797 0 13Z" stroke="#FFFFFF" stroke-width="7.99793" stroke-miterlimit="8" fill="none" fill-rule="evenodd" transform="matrix(-1 0 0 1.00026 51 100.026)"/><path d="M76 66.0171 85.694 74.7644" stroke="#FFFFFF" stroke-width="7.99793" stroke-miterlimit="8" fill="none" fill-rule="evenodd"/><path d="M0 12.8562C-1.63677e-15 5.75593 5.75593-1.63677e-15 12.8562-3.27354e-15 19.9565-6.54708e-15 25.7125 5.75593 25.7125 12.8562 25.7125 19.9565 19.9565 25.7125 12.8562 25.7125 5.75593 25.7125-8.18385e-15 19.9565 0 12.8562Z" stroke="#FFFFFF" stroke-width="7.99896" stroke-miterlimit="8" fill="none" fill-rule="evenodd" transform="matrix(-0.707015 -0.707198 -0.707015 0.707198 54.9411 41.4461)"/><path d="M0 0 22.0743 0.00010496" stroke="#FFFFFF" stroke-width="7.99793" stroke-miterlimit="8" fill="none" fill-rule="evenodd" transform="matrix(-1 0 0 1.00026 78.0742 67.0173)"/><path d="M59.2764 69.2915 46 51.0132" stroke="#FFFFFF" stroke-width="7.99793" stroke-miterlimit="8" fill="none" fill-rule="evenodd"/><text fill="#FFFFFF" font-family="OCR A,OCR A_MSFontService,sans-serif" font-weight="400" font-stretch="expanded" font-size="267" transform="matrix(1 0 0 1.00026 286.082 203)">H2X<tspan font-size="267" x="531.529" y="0">Lab</tspan></text></g></svg>