<svg width="720" height="384" xmlns="http://www.w3.org/2000/svg" xmlns:xlink="http://www.w3.org/1999/xlink" overflow="hidden"><defs><clipPath id="clip0"><rect x="0" y="0" width="720" height="384"/></clipPath><clipPath id="clip1"><rect x="58" y="165" width="27" height="46"/></clipPath><clipPath id="clip2"><rect x="58" y="165" width="27" height="46"/></clipPath><clipPath id="clip3"><rect x="58" y="165" width="27" height="46"/></clipPath></defs><g clip-path="url(#clip0)"><rect x="0" y="0" width="720" height="384"/><path d="M99.4274 213.896 94 209" stroke="#FFFFFF" stroke-width="8" stroke-miterlimit="8" fill="none" fill-rule="evenodd"/><path d="M0 7.19701C-9.16268e-16 3.22221 3.22219 -9.16275e-16 7.19696-1.83255e-15 11.1717-3.6651e-15 14.3939 3.22221 14.3939 7.19701 14.3939 11.1718 11.1717 14.394 7.19696 14.394 3.22219 14.394-4.58134e-15 11.1718 0 7.19701Z" stroke="#FFFFFF" stroke-width="8" stroke-miterlimit="8" fill="none" fill-rule="evenodd" transform="matrix(0.707107 0.707107 0.707107 -0.707107 110.895 227.85)"/><path d="M0 0 12.3588 0.000104987" stroke="#FFFFFF" stroke-width="8" stroke-miterlimit="8" fill="none" fill-rule="evenodd" transform="matrix(1 0 0 -1 98 214)"/><path d="M109 213 116.433 223.231" stroke="#FFFFFF" stroke-width="8" stroke-miterlimit="8" fill="none" fill-rule="evenodd"/><path d="M0 0 5.4274 4.89617" stroke="#FFFFFF" stroke-width="8" stroke-miterlimit="8" fill="none" fill-rule="evenodd" transform="matrix(1 0 0 -1 43 215.896)"/><path d="M26.3277 224.516C29.1383 227.326 29.1383 231.883 26.3277 234.694 23.5171 237.504 18.9602 237.504 16.1496 234.694 13.339 231.883 13.339 227.326 16.1496 224.516 18.9602 221.705 23.517 221.705 26.3277 224.516Z" stroke="#FFFFFF" stroke-width="8" stroke-miterlimit="8" fill="none" fill-rule="evenodd"/><path d="M44.3588 215 32 215" stroke="#FFFFFF" stroke-width="8" stroke-miterlimit="8" fill="none" fill-rule="evenodd"/><path d="M0 0 7.43307 10.231" stroke="#FFFFFF" stroke-width="8" stroke-miterlimit="8" fill="none" fill-rule="evenodd" transform="matrix(-1 0 0 1 33.4331 214)"/><path d="M0 0 5.4274 4.89617" stroke="#FFFFFF" stroke-width="8" stroke-miterlimit="8" fill="none" fill-rule="evenodd" transform="matrix(-1 0 0 1 99.4274 163)"/><path d="M115.949 154.746C113.139 151.936 113.139 147.379 115.949 144.568 118.76 141.758 123.317 141.758 126.127 144.568 128.938 147.379 128.938 151.936 126.127 154.746 123.317 157.557 118.76 157.557 115.949 154.746Z" stroke="#FFFFFF" stroke-width="8" stroke-miterlimit="8" fill="none" fill-rule="evenodd"/><path d="M98 164 110.359 164" stroke="#FFFFFF" stroke-width="8" stroke-miterlimit="8" fill="none" fill-rule="evenodd"/><path d="M0 0 7.43307 10.231" stroke="#FFFFFF" stroke-width="8" stroke-miterlimit="8" fill="none" fill-rule="evenodd" transform="matrix(1 0 0 -1 109 165.231)"/><g clip-path="url(#clip1)"><g clip-path="url(#clip2)"><g clip-path="url(#clip3)"><path d="M32.8696 36.1871C32.8696 38.322 31.1389 40.0526 29.0041 40.0526 26.8692 40.0526 25.1386 38.3219 25.1386 36.1871 25.1386 34.0522 26.8693 32.3216 29.0041 32.3216 31.139 32.3216 32.8696 34.0523 32.8696 36.1871Z" stroke="#FFFFFF" stroke-width="0.104098" fill="#FFFFFF" transform="matrix(1 0 0 1.01206 44.2303 132.321)"/><path d="M53.7657 51.0647C53.7657 51.0647 50.6066 67.4677 49.9265 68.5777 49.3447 69.5268 44.8055 76.9747 44.8055 76.9747 43.8364 78.5637 44.7548 79.6997 45.7814 80.2924 46.6554 80.797 48.5342 80.672 49.1554 79.6124 49.1554 79.6124 54.1916 71.7751 54.7411 70.0848 55.1215 68.9147 56.0055 64.0604 56.0055 64.0604 56.0055 64.0604 60.899 69.1074 61.4349 70.0105 62.1105 71.1489 63.3687 79.0844 63.3687 79.0844 63.6696 80.4963 65.0162 80.9568 66.4181 80.7206 67.5253 80.5341 68.6832 79.7851 68.4263 78.415 68.4263 78.415 67.3074 69.2143 66.4181 67.7045 65.357 65.9029 59.6499 59.7462 59.6499 59.7462L61.2861 52.4574C61.2861 52.4574 62.3364 54.5863 63.0712 55.5068 63.9069 56.5536 69.17 59.5975 69.17 59.5975 69.6528 59.9214 70.7457 59.7429 71.1782 58.9281 71.5253 58.2742 71.509 57.2148 70.732 56.6968 70.732 56.6968 66.3946 53.9738 65.3769 53.1267 64.245 52.1864 61.9553 45.9138 61.9553 45.9138 61.245 44.9365 60.2735 43.8582 58.6083 43.8313 56.9299 43.8042 56.0898 44.7289 55.3357 45.2444 55.3357 45.2444 48.9062 49.941 48.27 50.897 47.63 51.8587 46.485 59.0784 46.485 59.0784 46.3055 59.901 46.6268 60.5625 47.6006 60.789 48.7921 61.0662 49.6462 60.3243 49.7575 59.7478 49.7575 59.7478 50.4916 54.0453 51.0219 53.2027 51.6391 52.2217 53.7652 51.0659 53.7652 51.0659Z" stroke="#FFFFFF" stroke-width="0.104098" fill="#FFFFFF" transform="matrix(1 0 0 1.01206 13.6057 129.213)"/></g></g></g><path d="M39 188.5C39 171.103 53.103 157 70.5 157 87.897 157 102 171.103 102 188.5 102 205.897 87.897 220 70.5 220 53.103 220 39 205.897 39 188.5Z" stroke="#FFFFFF" stroke-width="8" stroke-miterlimit="8" fill="none" fill-rule="evenodd"/><path d="M0 0 0.000104987 12.1236" stroke="#FFFFFF" stroke-width="8" stroke-miterlimit="8" fill="none" fill-rule="evenodd" transform="matrix(-1.83697e-16 -1 -1 1.83697e-16 114.124 188)"/><path d="M113 188C113 184.134 116.358 181 120.5 181 124.642 181 128 184.134 128 188 128 191.866 124.642 195 120.5 195 116.358 195 113 191.866 113 188Z" stroke="#FFFFFF" stroke-width="8" stroke-miterlimit="8" fill="none" fill-rule="evenodd"/><path d="M0 0 0.000104987 12.1236" stroke="#FFFFFF" stroke-width="8" stroke-miterlimit="8" fill="none" fill-rule="evenodd" transform="matrix(-1 1.22465e-16 1.22465e-16 1 72 145)"/><path d="M72.4999 146C68.3578 146 64.9999 142.866 64.9999 139 64.9999 135.134 68.3578 132 72.4999 132 76.6421 132 79.9999 135.134 79.9999 139 79.9999 142.866 76.6421 146 72.4999 146Z" stroke="#FFFFFF" stroke-width="8" stroke-miterlimit="8" fill="none" fill-rule="evenodd"/><path d="M0 0 0.000104987 12.1236" stroke="#FFFFFF" stroke-width="8" stroke-miterlimit="8" fill="none" fill-rule="evenodd" transform="matrix(1 0 0 -1 72 232.124)"/><path d="M71.5 231C75.6421 231 79 234.358 79 238.5 79 242.642 75.6421 246 71.5 246 67.3579 246 64 242.642 64 238.5 64 234.358 67.3579 231 71.5 231Z" stroke="#FFFFFF" stroke-width="8" stroke-miterlimit="8" fill="none" fill-rule="evenodd"/><path d="M27.9999 188 40.1235 188" stroke="#FFFFFF" stroke-width="8" stroke-miterlimit="8" fill="none" fill-rule="evenodd"/><path d="M0 7C-9.5485e-16 3.13401 3.35786 -8.91193e-16 7.5-1.78239e-15 11.6421-3.56477e-15 15 3.13401 15 7 15 10.866 11.6421 14 7.5 14 3.35786 14-4.77425e-15 10.866 0 7Z" stroke="#FFFFFF" stroke-width="8" stroke-miterlimit="8" fill="none" fill-rule="evenodd" transform="matrix(-1 0 0 1 29 181)"/><path d="M42 162 47.4274 166.896" stroke="#FFFFFF" stroke-width="8" stroke-miterlimit="8" fill="none" fill-rule="evenodd"/><path d="M0 7.19696C-9.16268e-16 3.22219 3.22219 -9.16268e-16 7.19696-1.83254e-15 11.1717-3.66507e-15 14.3939 3.22219 14.3939 7.19696 14.3939 11.1717 11.1717 14.3939 7.19696 14.3939 3.22219 14.3939-4.58134e-15 11.1717 0 7.19696Z" stroke="#FFFFFF" stroke-width="8" stroke-miterlimit="8" fill="none" fill-rule="evenodd" transform="matrix(-0.707107 -0.707107 -0.707107 0.707107 30.7602 148.031)"/><path d="M0 0 12.3588 0.000104987" stroke="#FFFFFF" stroke-width="8" stroke-miterlimit="8" fill="none" fill-rule="evenodd" transform="matrix(-1 0 0 1 43.3588 162)"/><path d="M33.4331 163.231 26 153" stroke="#FFFFFF" stroke-width="8" stroke-miterlimit="8" fill="none" fill-rule="evenodd"/><text fill="#FFFFFF" font-family="OCR A,OCR A_MSFontService,sans-serif" font-weight="400" font-stretch="expanded" font-size="149" transform="translate(160.008 241)">H2X<tspan font-size="149" x="297.727" y="0">Lab</tspan></text></g></svg>